# xmcd
#
# Track frame offsets:
#	150
#	11679
#	26273
#	34911
#	42481
#	59116
#	74270
#	98011
#	110467
#	131979
#	162591
#	169875
#	177970
#	195546
#	213629
#	229480
#	245055
#	259615
#	270547
#	290873
#	310308
#
# Disc length: 4405
#
# Revision: 3
# Processed by: cddbd v1.5.1PL0 Copyright (c) Steve Scherf et al.
# Submitted via: CDex 1.40Beta3
# Normalized: r2:TDELIM( - )
#
DISCID=49113315
DTITLE=Various Artist - The Best
DYEAR=1900
DGENRE=Blues
TTITLE0=Vladimir Vysotsky - Полчаса до атаки
TTITLE1=Vladimir Vysotsky - Не вернулся из боя
TTITLE2=Vladimir Vysotsky - Наверно я погиб
TTITLE3=Vladimir Vysotsky - Таганка
TTITLE4=Vladimir Vysotsky - Спасите наши души
TTITLE5=Vladimir Vysotsky - Охота на волков
TTITLE6=Vladimir Vysotsky - Баладе о детстве
TTITLE7=Vladimir Vysotsky - Белая горячка
TTITLE8=Vladimir Vysotsky - Балада о любвы
TTITLE9=Vladimir Vysotsky - Балада о старом доме
TTITLE10=Vladimir Vysotsky - Бал маскарад
TTITLE11=Vladimir Vysotsky - Четыри масты
TTITLE12=Signal - В друго време
TTITLE13=Signal - Сбогом
TTITLE14=Signal - Да те жадувам
TTITLE15=Diana Express - Душа
TTITLE16=Diana Express - Балада за Пловдив
TTITLE17=Richard Clyderman - Romeo and Juliet
TTITLE18=Metallica - Until It Sleeps
TTITLE19=Allice Cooper - Die For You
TTITLE20=Allice Cooper - Poison
EXTD=ID3G:   0
EXTT0=
EXTT1=
EXTT2=
EXTT3=
EXTT4=
EXTT5=
EXTT6=
EXTT7=
EXTT8=
EXTT9=
EXTT10=
EXTT11=
EXTT12=
EXTT13=
EXTT14=
EXTT15=
EXTT16=
EXTT17=
EXTT18=
EXTT19=
EXTT20=
PLAYORDER=
